<svg width="64" height="64" viewBox="0 0 64 64" fill="none" xmlns="http://www.w3.org/2000/svg">
  <rect width="64" height="64" rx="16" fill="#111827"/>
  <path d="M30.5 41.4C28.6 42.7 26.2 43.4 23.4 43.4C17.1 43.4 12.8 38.9 12.8 32.1C12.8 25.3 17.2 20.7 23.6 20.7C26.3 20.7 28.7 21.4 30.5 22.7V28.4C28.8 26.7 26.7 25.8 24.1 25.8C20.6 25.8 18.3 28.3 18.3 32.1C18.3 35.9 20.6 38.3 24.2 38.3C26.7 38.3 28.9 37.4 30.5 35.8V41.4Z" fill="white"/>
  <path d="M33.2 21.2H39.4L44.3 30.1L49.1 21.2H55.2L47 35.3V42.9H41.6V35.4L33.2 21.2Z" fill="white"/>
  <circle cx="49" cy="17" r="4.3" fill="#F97316"/>
</svg>