<svg xmlns="http://www.w3.org/2000/svg" viewBox="0 0 720 560"><rect width="720" height="560" rx="34" fill="#fff"/><rect x="44" y="44" width="632" height="472" rx="28" fill="#F8F3EA" stroke="#E5DED2"/><circle cx="132" cy="124" r="48" fill="#D98C45" opacity=".9"/><rect x="226" y="82" width="356" height="84" rx="18" fill="#173F35"/><rect x="252" y="108" width="190" height="12" rx="6" fill="#F8F3EA"/><rect x="252" y="132" width="276" height="10" rx="5" fill="#F8F3EA" opacity=".7"/><path d="M132 198v82h130" fill="none" stroke="#315C54" stroke-width="8" stroke-linecap="round" stroke-dasharray="4 18"/><rect x="78" y="286" width="184" height="112" rx="22" fill="#fff" stroke="#E5DED2"/><rect x="300" y="232" width="164" height="112" rx="22" fill="#fff" stroke="#E5DED2"/><rect x="486" y="320" width="142" height="92" rx="22" fill="#fff" stroke="#E5DED2"/><circle cx="116" cy="326" r="18" fill="#315C54"/><rect x="150" y="316" width="76" height="12" rx="6" fill="#173F35"/><rect x="106" y="354" width="112" height="10" rx="5" fill="#6F7E78" opacity=".5"/><path d="M262 342h38M464 292h58" stroke="#D98C45" stroke-width="8" stroke-linecap="round"/><circle cx="382" cy="288" r="34" fill="#F0E5D2" stroke="#D98C45" stroke-width="6"/><path d="M365 288l12 12 24-28" fill="none" stroke="#173F35" stroke-width="8" stroke-linecap="round" stroke-linejoin="round"/><rect x="526" y="350" width="62" height="10" rx="5" fill="#173F35"/><rect x="526" y="374" width="80" height="10" rx="5" fill="#6F7E78" opacity=".45"/><path d="M354 398c22 22 58 36 112 36" fill="none" stroke="#315C54" stroke-width="8" stroke-linecap="round"/><g fill="#D98C45"><circle cx="334" cy="398" r="10"/><circle cx="484" cy="434" r="10"/></g></svg>