<svg xmlns="http://www.w3.org/2000/svg" viewBox="0 0 520 360"><rect width="520" height="360" rx="28" fill="#EFF7EF"/><rect x="200" y="54" width="120" height="236" rx="28" fill="#173F35"/><rect x="214" y="82" width="92" height="170" rx="16" fill="#F8F3EA"/><circle cx="260" cy="270" r="8" fill="#F8F3EA"/><rect x="232" y="106" width="58" height="12" rx="6" fill="#D98C45"/><rect x="232" y="136" width="58" height="36" rx="10" fill="#fff" stroke="#E5DED2"/><rect x="232" y="188" width="58" height="36" rx="10" fill="#fff" stroke="#E5DED2"/><circle cx="130" cy="132" r="34" fill="#D98C45"/><circle cx="390" cy="132" r="34" fill="#315C54"/><circle cx="130" cy="232" r="34" fill="#315C54" opacity=".85"/><circle cx="390" cy="232" r="34" fill="#D98C45" opacity=".85"/><path d="M164 132h36M320 132h36M164 232h36M320 232h36" stroke="#173F35" stroke-width="6" stroke-linecap="round"/><path d="M120 132c8 10 14 10 22 0M380 132c8 10 14 10 22 0M120 232c8 10 14 10 22 0M380 232c8 10 14 10 22 0" stroke="#fff" stroke-width="5" stroke-linecap="round" fill="none"/></svg>