<svg xmlns="http://www.w3.org/2000/svg" viewBox="0 0 520 360"><rect width="520" height="360" rx="28" fill="#F4F0E8"/><rect x="52" y="88" width="110" height="184" rx="18" fill="#fff" stroke="#E5DED2"/><rect x="72" y="116" width="70" height="56" rx="12" fill="#D98C45" opacity=".85"/><rect x="74" y="194" width="66" height="10" rx="5" fill="#173F35"/><rect x="74" y="218" width="48" height="10" rx="5" fill="#6F7E78" opacity=".55"/><rect x="210" y="120" width="100" height="120" rx="18" fill="#173F35"/><text x="234" y="188" font-family="Arial" font-size="20" font-weight="700" fill="#fff">DCO</text><rect x="360" y="88" width="110" height="184" rx="18" fill="#fff" stroke="#E5DED2"/><rect x="382" y="118" width="66" height="42" rx="10" fill="#F0E5D2"/><rect x="382" y="184" width="66" height="10" rx="5" fill="#173F35"/><rect x="382" y="210" width="48" height="10" rx="5" fill="#D98C45"/><path d="M162 180h48M310 180h50" stroke="#315C54" stroke-width="8" stroke-linecap="round"/><path d="M198 166l14 14-14 14M348 166l14 14-14 14" fill="none" stroke="#315C54" stroke-width="6" stroke-linecap="round" stroke-linejoin="round"/></svg>